<svg width="24" height="24" viewBox="0 0 24 24" fill="none" xmlns="http://www.w3.org/2000/svg">
<path d="M3.50352 18.2153C3.36998 18.2153 3.24191 18.2566 3.14748 18.33C3.05305 18.4034 3 18.503 3 18.6069C3 18.7107 3.05305 18.8103 3.14748 18.8837C3.24191 18.9572 3.36998 18.9984 3.50352 18.9984L20.4965 19C20.63 19 20.7581 18.9587 20.8525 18.8853C20.947 18.8119 21 18.7123 21 18.6084C21 18.5046 20.947 18.405 20.8525 18.3316C20.7581 18.2581 20.63 18.2169 20.4965 18.2169L3.50352 18.2153ZM3.50352 11.608C3.36998 11.608 3.24191 11.6493 3.14748 11.7227C3.05305 11.7962 3 11.8958 3 11.9996C3 12.1035 3.05305 12.2031 3.14748 12.2765C3.24191 12.3499 3.36998 12.3912 3.50352 12.3912L13.574 12.392C13.7076 12.392 13.8356 12.3507 13.9301 12.2773C14.0245 12.2038 14.0775 12.1042 14.0775 12.0004C14.0775 11.8965 14.0245 11.7969 13.9301 11.7235C13.8356 11.6501 13.7076 11.6088 13.574 11.6088L3.50352 11.608ZM3.50352 5C3.36998 5 3.24191 5.04125 3.14748 5.11469C3.05305 5.18812 3 5.28772 3 5.39156C3 5.49541 3.05305 5.59501 3.14748 5.66844C3.24191 5.74188 3.36998 5.78313 3.50352 5.78313L20.4965 5.78391C20.63 5.78391 20.7581 5.74266 20.8525 5.66923C20.947 5.59579 21 5.4962 21 5.39235C21 5.2885 20.947 5.1889 20.8525 5.11547C20.7581 5.04204 20.63 5.00078 20.4965 5.00078L3.50352 5Z" fill="black"/>
</svg>
