<svg width="21" height="21" viewBox="0 0 21 21" fill="none" xmlns="http://www.w3.org/2000/svg">
<path d="M15.1663 12.6778C15.2456 12.0233 15.3051 11.3688 15.3051 10.6944C15.3051 10.0201 15.2456 9.3656 15.1663 8.7111H18.5181C18.6768 9.34577 18.776 10.0102 18.776 10.6944C18.776 11.3787 18.6768 12.0431 18.5181 12.6778M13.411 18.1914C14.006 17.0907 14.4622 15.9007 14.7795 14.6611H17.705C16.7442 16.3155 15.22 17.5687 13.411 18.1914ZM13.1631 12.6778H8.52213C8.42296 12.0233 8.36346 11.3688 8.36346 10.6944C8.36346 10.0201 8.42296 9.35569 8.52213 8.7111H13.1631C13.2524 9.35569 13.3218 10.0201 13.3218 10.6944C13.3218 11.3688 13.2524 12.0233 13.1631 12.6778ZM10.8426 18.5881C10.0195 17.3981 9.35513 16.0792 8.94855 14.6611H12.7367C12.3301 16.0792 11.6657 17.3981 10.8426 18.5881ZM6.87596 6.72777H3.9803C4.93116 5.06893 6.4543 3.81375 8.2643 3.19744C7.6693 4.29819 7.22305 5.48819 6.87596 6.72777ZM3.9803 14.6611H6.87596C7.22305 15.9007 7.6693 17.0907 8.2643 18.1914C6.4581 17.5683 4.9371 16.3149 3.9803 14.6611ZM3.16713 12.6778C3.00846 12.0431 2.9093 11.3787 2.9093 10.6944C2.9093 10.0102 3.00846 9.34577 3.16713 8.7111H6.51896C6.43963 9.3656 6.38013 10.0201 6.38013 10.6944C6.38013 11.3688 6.43963 12.0233 6.51896 12.6778M10.8426 2.79085C11.6657 3.98085 12.3301 5.30969 12.7367 6.72777H8.94855C9.35513 5.30969 10.0195 3.98085 10.8426 2.79085ZM17.705 6.72777H14.7795C14.4692 5.49955 14.0096 4.31395 13.411 3.19744C15.2357 3.82219 16.753 5.0816 17.705 6.72777ZM10.8426 0.777771C5.35871 0.777771 0.925964 5.24027 0.925964 10.6944C0.925964 13.3245 1.97075 15.8468 3.83049 17.7066C4.75134 18.6274 5.84454 19.3579 7.04769 19.8562C8.25083 20.3546 9.54036 20.6111 10.8426 20.6111C13.4727 20.6111 15.995 19.5663 17.8548 17.7066C19.7145 15.8468 20.7593 13.3245 20.7593 10.6944C20.7593 9.39216 20.5028 8.10264 20.0044 6.89949C19.5061 5.69635 18.7756 4.60314 17.8548 3.6823C16.9339 2.76145 15.8407 2.03099 14.6376 1.53263C13.4344 1.03427 12.1449 0.777771 10.8426 0.777771Z" fill="#A30224"/>
</svg>
