<svg width="20" height="17" viewBox="0 0 20 17" fill="none" xmlns="http://www.w3.org/2000/svg">
<path d="M5.85184 16.6476C5.56221 16.6476 5.31926 16.5477 5.12299 16.348C4.92672 16.1482 4.82893 15.9012 4.82961 15.6071V1.04048C4.82961 0.745678 4.92775 0.498392 5.12401 0.29862C5.32028 0.098849 5.56289 -0.00069005 5.85184 3.60026e-06H14.0296C14.3192 3.60026e-06 14.5622 0.0998894 14.7585 0.299661C14.9547 0.499432 15.0525 0.746372 15.0518 1.04048V15.6071C15.0518 15.9019 14.9537 16.1492 14.7574 16.349C14.5612 16.5488 14.3186 16.6483 14.0296 16.6476H5.85184ZM0.740726 13.5262V3.09542C0.740726 2.80062 0.83886 2.55784 1.03513 2.36709C1.23139 2.17633 1.474 2.08096 1.76295 2.08096C2.05258 2.08096 2.29553 2.18084 2.49179 2.38061C2.68806 2.58038 2.78585 2.82732 2.78517 3.12143V13.5522C2.78517 13.847 2.68704 14.0898 2.49077 14.2805C2.2945 14.4713 2.0519 14.5667 1.76295 14.5667C1.47332 14.5667 1.23037 14.4668 1.0341 14.267C0.837837 14.0672 0.740045 13.8203 0.740726 13.5262ZM17.0963 13.5262V3.09542C17.0963 2.80062 17.1944 2.55784 17.3907 2.36709C17.5869 2.17633 17.8295 2.08096 18.1185 2.08096C18.4081 2.08096 18.6511 2.18084 18.8473 2.38061C19.0436 2.58038 19.1414 2.82732 19.1407 3.12143V13.5522C19.1407 13.847 19.0426 14.0898 18.8463 14.2805C18.6501 14.4713 18.4074 14.5667 18.1185 14.5667C17.8289 14.5667 17.5859 14.4668 17.3897 14.267C17.1934 14.0672 17.0956 13.8203 17.0963 13.5262Z" fill="#A30224"/>
</svg>
